<?xml version="1.0" standalone="no"?>
<!DOCTYPE svg PUBLIC "-//W3C//DTD SVG 20010904//EN"
 "http://www.w3.org/TR/2001/REC-SVG-20010904/DTD/svg10.dtd">
<svg version="1.0" xmlns="http://www.w3.org/2000/svg"
 width="190.000000pt" height="190.000000pt" viewBox="0 0 190.000000 190.000000"
 preserveAspectRatio="xMidYMid meet">
<metadata>
Created by potrace 1.14, written by Peter Selinger 2001-2017
</metadata>
<g transform="translate(0.000000,190.000000) scale(0.100000,-0.100000)"
fill="#000000" stroke="none">
<path d="M860 1777 c-14 -7 -36 -20 -50 -29 -42 -28 -143 -57 -187 -53 -53 4
-108 -29 -189 -114 -58 -61 -148 -187 -160 -223 -3 -10 -21 -25 -40 -33 -34
-14 -52 -44 -56 -92 -2 -16 -15 -31 -45 -49 -35 -20 -43 -30 -43 -54 0 -16 11
-42 26 -59 21 -25 24 -37 19 -67 -8 -51 11 -104 37 -104 23 0 23 -18 -6 -185
-8 -49 -17 -106 -19 -125 -5 -45 19 -129 46 -157 25 -28 80 -39 113 -24 29 13
31 32 5 55 -23 21 -34 60 -25 88 5 18 9 16 45 -21 22 -23 39 -50 39 -63 0 -38
19 -93 38 -114 11 -11 19 -34 19 -53 0 -49 51 -93 101 -90 22 2 48 -4 63 -14
27 -18 134 -42 148 -33 5 3 14 -1 21 -9 11 -14 29 -19 110 -31 94 -14 199 5
223 40 5 8 10 7 16 -3 6 -9 24 -15 48 -14 21 1 117 3 213 5 96 2 181 7 188 11
33 21 1 119 -62 187 -47 50 -74 93 -91 140 -14 39 -14 42 3 35 9 -4 24 -9 33
-12 10 -3 14 -13 11 -32 -5 -37 19 -46 64 -25 74 35 131 146 136 261 3 59 4
61 28 59 35 -3 91 13 113 32 21 19 22 55 2 72 -8 7 -15 10 -15 7 0 -4 -10 -3
-22 2 -18 6 -22 16 -23 62 -3 78 -60 227 -110 289 -6 8 -19 41 -28 72 -21 77
-78 168 -157 248 -56 58 -76 71 -150 99 -47 18 -117 48 -155 66 -127 62 -217
79 -275 52z m-210 -1298 c0 -5 -4 -9 -10 -9 -5 0 -10 7 -10 16 0 8 5 12 10 9
6 -3 10 -10 10 -16z m610 -184 c0 -4 -49 -55 -51 -52 0 1 -3 14 -5 30 -4 24
-2 27 26 27 16 0 30 -2 30 -5z"/>
</g>
</svg>
